<svg width="557" height="139" viewBox="0 0 557 139" fill="none" xmlns="http://www.w3.org/2000/svg">
<path d="M525.338 0.5C525.338 0.5 57.3381 0 39.8381 0C22.3381 0 15.8381 11.5 12.8381 26.5L0.338088 108.5C-2.16189 128 9.33815 139 30.3381 139L303.005 139C322.005 139 343.005 128.5 343.005 128.5H515.338C534.89 128.5 542.838 115 545.838 98L555.838 29.5C557.838 11.5 542.453 0.499989 525.338 0.5Z" fill="white"/>
<path d="M29.3381 98.0932L41.1872 26.5H65.2688C69.9155 26.5 73.6561 27.3157 76.4906 28.947C79.3251 30.5784 81.2767 32.804 82.3454 35.6239C83.4374 38.4439 83.6697 41.6483 83.0424 45.2373C82.5545 48.2203 81.6368 50.7722 80.2892 52.893C78.9417 54.9905 77.3037 56.7034 75.3754 58.0318C73.4702 59.3369 71.414 60.2807 69.2068 60.8633L69.1023 61.4227C71.3792 61.5858 73.4818 62.4015 75.4102 63.8697C77.3386 65.3146 78.7791 67.3422 79.7317 69.9523C80.7075 72.5625 80.9049 75.6854 80.3241 79.321C79.72 82.9333 78.3725 86.161 76.2815 89.0042C74.2137 91.8241 71.3792 94.0498 67.778 95.6811C64.2 97.2892 59.8554 98.0932 54.744 98.0932H29.3381ZM36.8309 92.2203H55.7198C61.2261 92.2203 65.5011 90.9968 68.5447 88.5498C71.5883 86.1027 73.4354 83.0265 74.0859 79.321C74.5273 76.5943 74.2718 74.1239 73.3192 71.91C72.3666 69.6727 70.81 67.9015 68.6492 66.5964C66.4885 65.2913 63.805 64.6388 60.5988 64.6388H41.4312L36.8309 92.2203ZM42.407 58.8358H60.564C63.3752 58.8358 65.9309 58.2532 68.231 57.0879C70.5312 55.9227 72.4363 54.3146 73.9465 52.2638C75.4567 50.2129 76.4209 47.8708 76.8391 45.2373C77.4896 41.4386 76.781 38.3506 74.7132 35.9735C72.6687 33.5731 69.1952 32.3729 64.293 32.3729H46.7284L42.407 58.8358Z" fill="black"/>
<path d="M113.092 99.2119C108.097 99.2119 103.973 98.0466 100.72 95.7161C97.4675 93.3623 95.1906 90.1112 93.8896 85.9629C92.5885 81.7913 92.391 76.9905 93.2971 71.5604C94.2032 66.1536 95.9922 61.3528 98.6641 57.1578C101.336 52.9396 104.635 49.6419 108.562 47.2648C112.488 44.8644 116.751 43.6642 121.352 43.6642C124.256 43.6642 126.974 44.2002 129.507 45.2722C132.039 46.321 134.188 47.9407 135.954 50.1314C137.743 52.2987 138.986 55.0371 139.683 58.3464C140.38 61.6324 140.357 65.5244 139.613 70.0222L139.125 73.0985H97.3049L98.1761 67.6102H133.689C134.269 64.161 134.107 61.0614 133.201 58.3114C132.295 55.5614 130.75 53.3824 128.566 51.7744C126.405 50.143 123.721 49.3273 120.515 49.3273C117.239 49.3273 114.138 50.2479 111.21 52.089C108.306 53.9301 105.843 56.3305 103.822 59.2903C101.824 62.2267 100.534 65.3612 99.9535 68.6939L99.2565 72.8189C98.513 77.3633 98.606 81.1737 99.5353 84.25C100.465 87.303 102.149 89.6102 104.589 91.1716C107.028 92.733 110.153 93.5138 113.963 93.5138C116.519 93.5138 118.831 93.1176 120.899 92.3252C122.966 91.5328 124.767 90.4725 126.3 89.1441C127.834 87.7924 129.065 86.3125 129.994 84.7044L135.536 86.6271C134.351 88.8877 132.678 90.9735 130.517 92.8845C128.38 94.7955 125.836 96.3337 122.885 97.4989C119.958 98.6409 116.693 99.2119 113.092 99.2119Z" fill="black"/>
<path d="M163.425 99.3167C160.195 99.3167 157.349 98.6875 154.886 97.429C152.424 96.1472 150.588 94.3061 149.38 91.9057C148.195 89.482 147.87 86.5455 148.404 83.0964C148.869 80.4396 149.752 78.2023 151.053 76.3845C152.377 74.5667 154.05 73.0752 156.071 71.91C158.092 70.7214 160.416 69.7892 163.041 69.1133C165.667 68.4375 168.524 67.9248 171.614 67.5752C174.635 67.2023 177.214 66.8761 179.351 66.5964C181.489 66.3167 183.15 65.8739 184.335 65.268C185.52 64.6621 186.228 63.6833 186.461 62.3316L186.67 61.0731C187.274 57.4142 186.716 54.536 184.997 52.4386C183.278 50.3178 180.397 49.2574 176.354 49.2574C172.497 49.2574 169.152 50.1197 166.317 51.8443C163.506 53.5455 161.415 55.5381 160.044 57.822L154.538 55.6896C156.211 52.7532 158.267 50.411 160.706 48.6631C163.146 46.892 165.76 45.6218 168.548 44.8528C171.336 44.0604 174.089 43.6642 176.807 43.6642C178.852 43.6642 180.931 43.9322 183.045 44.4682C185.159 45.0042 187.053 45.9364 188.726 47.2648C190.422 48.5699 191.665 50.3994 192.455 52.7532C193.268 55.0837 193.384 58.0434 192.803 61.6324L186.739 98.0932H180.536L181.965 89.5985H181.582C180.606 91.1833 179.258 92.7214 177.539 94.2129C175.843 95.7044 173.81 96.928 171.44 97.8835C169.07 98.839 166.398 99.3167 163.425 99.3167ZM164.993 93.6186C168.292 93.6186 171.277 92.8845 173.949 91.4163C176.644 89.9481 178.852 88.0021 180.571 85.5784C182.313 83.1314 183.429 80.4396 183.917 77.5032L185.206 69.7426C184.695 70.1854 183.858 70.5816 182.697 70.9311C181.558 71.2807 180.269 71.5953 178.828 71.875C177.411 72.1314 175.982 72.3528 174.542 72.5392C173.125 72.7256 171.87 72.8888 170.778 73.0286C167.688 73.4015 164.993 73.9841 162.693 74.7765C160.416 75.5689 158.592 76.6642 157.221 78.0625C155.85 79.4375 154.991 81.2087 154.642 83.3761C154.108 86.6388 154.817 89.1674 156.768 90.9619C158.743 92.733 161.485 93.6186 164.993 93.6186Z" fill="black"/>
<path d="M240.635 77.5731L246.177 44.3983H252.38L243.458 98.0932H237.255L238.719 89.179H238.265C236.593 91.929 234.223 94.2246 231.156 96.0657C228.112 97.8835 224.627 98.7924 220.701 98.7924C217.286 98.7924 214.37 98.0466 211.954 96.5551C209.56 95.0402 207.853 92.8263 206.831 89.9131C205.808 87 205.646 83.4227 206.343 79.1811L212.163 44.3983H218.366L212.651 78.7966C211.977 82.9915 212.651 86.3708 214.672 88.9343C216.716 91.4746 219.667 92.7447 223.524 92.7447C225.94 92.7447 228.356 92.1621 230.773 90.9968C233.212 89.8316 235.326 88.1303 237.115 85.893C238.928 83.6324 240.101 80.8591 240.635 77.5731Z" fill="black"/>
<path d="M289.887 44.3983L289.016 49.8167H263.436L264.342 44.3983H289.887ZM274.414 31.5339H280.652L271.94 84.0752C271.568 86.3125 271.661 88.072 272.218 89.3538C272.776 90.6123 273.636 91.5095 274.797 92.0455C275.959 92.5583 277.237 92.8146 278.631 92.8146C279.444 92.8146 280.141 92.768 280.722 92.6748C281.326 92.5583 281.86 92.4417 282.325 92.3252L282.778 97.9534C282.104 98.1864 281.303 98.3962 280.373 98.5826C279.444 98.7924 278.329 98.8972 277.028 98.8972C274.751 98.8972 272.648 98.3962 270.72 97.3941C268.791 96.3919 267.328 94.9004 266.329 92.9195C265.33 90.9386 265.062 88.4799 265.527 85.5434L274.414 31.5339Z" fill="black"/>
<path d="M190.257 114.5C189.026 114.5 185.236 114.5 184.18 114.5C182.544 114.5 36.8309 114.5 36.8309 114.5L31.3364 108.522C36.9724 108.522 188.934 108.408 190.58 108.408C193.411 108.408 279.933 108.408 303.205 108.408C306.776 108.408 310.028 106.508 311.787 103.401C312.559 102.039 313.32 100.68 313.828 99.7339L314.788 97.6388L304.193 43.6642H310.641L319.005 89.2489H319.458L342.912 43.6642H349.917L317.859 104.133C317.277 105.231 316.599 106.276 315.778 107.209C315.029 108.062 314.148 109.023 313.271 109.961C310.525 112.899 306.656 114.5 302.634 114.5H197.854C197.854 114.5 197.854 114.5 197.854 114.5C197.854 114.5 192.216 114.5 190.257 114.5Z" fill="black"/>
<path d="M349.917 98.0932L361.766 26.5H368.283L362.847 59.3252H403.343L408.779 26.5H415.296L403.447 98.0932H396.93L402.367 65.1981H361.871L356.434 98.0932H349.917Z" fill="black"/>
<path d="M458.476 77.5731L464.017 44.3983H470.22L461.299 98.0932H455.095L456.559 89.179H456.106C454.433 91.929 452.063 94.2246 448.996 96.0657C445.953 97.8835 442.468 98.7924 438.541 98.7924C435.126 98.7924 432.21 98.0466 429.794 96.5551C427.401 95.0402 425.693 92.8263 424.671 89.9131C423.649 87 423.486 83.4227 424.183 79.1811L430.003 44.3983H436.206L430.491 78.7966C429.817 82.9915 430.491 86.3708 432.512 88.9343C434.557 91.4746 437.508 92.7447 441.364 92.7447C443.781 92.7447 446.197 92.1621 448.613 90.9968C451.053 89.8316 453.167 88.1303 454.956 85.893C456.768 83.6324 457.941 80.8591 458.476 77.5731Z" fill="black"/>
<path d="M479.011 98.0932L490.86 26.5H497.098L492.498 54.6409H493.056C494.008 53.0328 495.275 51.3782 496.855 49.6769C498.458 47.9756 500.432 46.554 502.779 45.4121C505.126 44.2468 507.937 43.6642 511.213 43.6642C515.604 43.6642 519.263 44.8294 522.191 47.16C525.141 49.4672 527.198 52.7066 528.359 56.8782C529.521 61.0265 529.649 65.8623 528.743 71.3856C527.813 76.9322 526.082 81.7913 523.55 85.9629C521.017 90.1345 517.904 93.3856 514.21 95.7161C510.516 98.0466 506.485 99.2119 502.117 99.2119C498.864 99.2119 496.239 98.6292 494.241 97.464C492.266 96.2987 490.756 94.8655 489.71 93.1642C488.688 91.4396 487.944 89.7617 487.48 88.1303H486.713L485.04 98.0932H479.011ZM489.606 71.2807C488.909 75.6155 488.909 79.4608 489.606 82.8167C490.326 86.1494 491.732 88.7712 493.823 90.6822C495.937 92.5699 498.725 93.5138 502.187 93.5138C505.741 93.5138 508.913 92.535 511.701 90.5773C514.512 88.5964 516.835 85.928 518.671 82.572C520.53 79.2161 521.807 75.4523 522.504 71.2807C523.178 67.1557 523.167 63.4386 522.47 60.1292C521.773 56.8199 520.367 54.1981 518.253 52.2638C516.138 50.3061 513.292 49.3273 509.714 49.3273C506.229 49.3273 503.093 50.2712 500.305 52.1589C497.54 54.0233 495.24 56.6102 493.404 59.9195C491.569 63.2055 490.303 66.9926 489.606 71.2807Z" fill="black"/>
</svg>
