<svg width="200" height="51" viewBox="0 0 200 51" fill="none" xmlns="http://www.w3.org/2000/svg">
<g clip-path="url(#clip0_725_59)">
<path d="M189.966 1.17985C189.966 1.17985 21.6247 1 15.3299 1C9.0351 1 6.69703 5.13659 5.61792 10.5321L1.12161 40.0278C0.222362 47.042 4.35896 50.9988 11.9127 50.9988L109.992 50.9987C116.826 50.9987 124.38 47.2219 124.38 47.2219H186.369C193.402 47.2219 196.261 42.3659 197.34 36.2509L200.937 11.6112C201.656 5.13659 196.122 1.17985 189.966 1.17985Z" fill="white"/>
<path d="M11.553 36.2845L15.8152 10.5322H24.4774C26.1488 10.5322 27.4944 10.8256 28.5139 11.4124C29.5335 11.9992 30.2355 12.7997 30.6199 13.8141C31.0127 14.8284 31.0963 15.9811 30.8707 17.272C30.6952 18.345 30.365 19.263 29.8803 20.0258C29.3956 20.7803 28.8064 21.3964 28.1128 21.8743C27.4275 22.3437 26.6879 22.6832 25.8939 22.8928L25.8563 23.094C26.6753 23.1526 27.4317 23.4461 28.1253 23.9742C28.819 24.4939 29.3371 25.2232 29.6798 26.1621C30.0308 27.101 30.1018 28.2243 29.8929 29.532C29.6756 30.8314 29.1909 31.9924 28.4387 33.0152C27.6949 34.0295 26.6753 34.8301 25.38 35.4169C24.093 35.9953 22.5302 36.2845 20.6916 36.2845H11.553ZM14.2482 34.172H21.0426C23.0233 34.172 24.561 33.7319 25.6558 32.8517C26.7506 31.9715 27.415 30.8649 27.649 29.532C27.8077 28.5512 27.7158 27.6627 27.3732 26.8663C27.0305 26.0615 26.4706 25.4244 25.6934 24.955C24.9162 24.4855 23.9509 24.2508 22.7976 24.2508H15.9029L14.2482 34.172ZM16.254 22.1635H22.7851C23.7963 22.1635 24.7156 21.9539 25.543 21.5347C26.3703 21.1156 27.0556 20.5372 27.5988 19.7995C28.142 19.0618 28.4889 18.2193 28.6393 17.272C28.8733 15.9056 28.6184 14.7949 27.8746 13.9398C27.1392 13.0764 25.8898 12.6447 24.1264 12.6447H17.8084L16.254 22.1635Z" fill="black"/>
<path d="M41.6796 36.6869C39.8828 36.6869 38.3994 36.2677 37.2294 35.4294C36.0594 34.5828 35.2404 33.4133 34.7724 31.9212C34.3044 30.4206 34.2334 28.6938 34.5593 26.7405C34.8852 24.7957 35.5287 23.0688 36.4898 21.5599C37.4509 20.0426 38.6376 18.8564 40.05 18.0013C41.4623 17.1379 42.9959 16.7062 44.6506 16.7062C45.6952 16.7062 46.673 16.899 47.584 17.2846C48.4949 17.6618 49.2679 18.2444 49.9031 19.0324C50.5466 19.8121 50.9937 20.797 51.2444 21.9874C51.4951 23.1694 51.4867 24.5694 51.2193 26.1873L51.0438 27.2938H36.0009L36.3143 25.3196H49.0882C49.2972 24.079 49.2387 22.964 48.9127 21.9748C48.5868 20.9857 48.0311 20.2019 47.2455 19.6234C46.4683 19.0366 45.503 18.7432 44.3497 18.7432C43.1714 18.7432 42.0557 19.0744 41.0027 19.7366C39.958 20.3989 39.0722 21.2623 38.3451 22.3269C37.6264 23.3832 37.1626 24.5107 36.9536 25.7094L36.7029 27.1932C36.4355 28.8279 36.4689 30.1985 36.8032 31.305C37.1375 32.4032 37.7434 33.2331 38.6209 33.7948C39.4984 34.3564 40.6224 34.6372 41.993 34.6372C42.9123 34.6372 43.7438 34.4947 44.4876 34.2097C45.2314 33.9247 45.8791 33.5433 46.4307 33.0654C46.9822 32.5792 47.4252 32.0469 47.7595 31.4685L49.7526 32.1601C49.3264 32.9732 48.7247 33.7235 47.9475 34.4109C47.1786 35.0983 46.2635 35.6516 45.2022 36.0707C44.1492 36.4815 42.975 36.6869 41.6796 36.6869Z" fill="black"/>
<path d="M59.7844 36.7246C58.6227 36.7246 57.599 36.4983 56.7131 36.0456C55.8273 35.5845 55.1671 34.9223 54.7325 34.0588C54.3063 33.187 54.1893 32.1308 54.3815 30.8901C54.5486 29.9344 54.8662 29.1297 55.3342 28.4758C55.8105 27.8219 56.4123 27.2854 57.1393 26.8663C57.8664 26.4388 58.7021 26.1034 59.6465 25.8603C60.5908 25.6172 61.6188 25.4328 62.7303 25.3071C63.8167 25.1729 64.7444 25.0556 65.5132 24.955C66.2821 24.8544 66.8796 24.6951 67.3058 24.4771C67.7321 24.2592 67.9869 23.9071 68.0705 23.4209L68.1457 22.9682C68.363 21.6521 68.1624 20.6168 67.544 19.8624C66.9256 19.0995 65.8893 18.7181 64.4351 18.7181C63.0478 18.7181 61.8444 19.0283 60.8249 19.6486C59.8136 20.2605 59.0615 20.9773 58.5684 21.7988L56.5878 21.0318C57.1895 19.9755 57.9291 19.133 58.8066 18.5043C59.6841 17.8672 60.6243 17.4103 61.6271 17.1337C62.63 16.8487 63.6203 16.7062 64.5981 16.7062C65.3335 16.7062 66.0815 16.8026 66.842 16.9954C67.6025 17.1882 68.2836 17.5235 68.8853 18.0013C69.4954 18.4708 69.9425 19.1288 70.2267 19.9755C70.5192 20.8138 70.561 21.8784 70.352 23.1694L68.1708 36.2845H65.9394L66.4534 33.2289H66.3155C65.9645 33.799 65.4798 34.3522 64.8614 34.8887C64.2513 35.4252 63.52 35.8653 62.6676 36.209C61.8152 36.5527 60.8541 36.7246 59.7844 36.7246ZM60.3485 34.675C61.5352 34.675 62.6091 34.4109 63.5702 33.8828C64.5396 33.3547 65.3335 32.6547 65.952 31.7829C66.5788 30.9027 66.9799 29.9344 67.1554 28.8782L67.6192 26.0867C67.4354 26.2459 67.1345 26.3885 66.7166 26.5142C66.3071 26.6399 65.8433 26.7531 65.3252 26.8537C64.8154 26.9459 64.3014 27.0256 63.7833 27.0926C63.2735 27.1597 62.8222 27.2184 62.4294 27.2687C61.3179 27.4028 60.3485 27.6124 59.5211 27.8974C58.7021 28.1824 58.0461 28.5764 57.553 29.0794C57.0599 29.574 56.7507 30.2111 56.6254 30.9907C56.4332 32.1643 56.688 33.0738 57.39 33.7193C58.1004 34.3564 59.0866 34.675 60.3485 34.675Z" fill="black"/>
<path d="M87.5574 28.9033L89.5505 16.9702H91.7819L88.5727 36.2845H86.3414L86.8679 33.078H86.7049C86.1032 34.0672 85.2508 34.8929 84.1476 35.5552C83.0528 36.209 81.7993 36.536 80.3869 36.536C79.1584 36.536 78.1096 36.2677 77.2404 35.7312C76.3796 35.1863 75.7654 34.39 75.3977 33.3421C75.0299 32.2942 74.9714 31.0074 75.2222 29.4817L77.3156 16.9702H79.547L77.4911 29.3434C77.2488 30.8524 77.4911 32.0679 78.2182 32.99C78.9536 33.9037 80.015 34.3606 81.4023 34.3606C82.2714 34.3606 83.1406 34.151 84.0097 33.7319C84.8872 33.3127 85.6477 32.7008 86.2912 31.896C86.9431 31.0829 87.3651 30.0853 87.5574 28.9033Z" fill="black"/>
<path d="M105.274 16.9702L104.96 18.9193H95.7589L96.0848 16.9702H105.274ZM99.7076 12.3429H101.952L98.8176 31.2422C98.6839 32.0469 98.7173 32.6798 98.9179 33.1409C99.1185 33.5936 99.4277 33.9163 99.8455 34.1091C100.263 34.2935 100.723 34.3858 101.224 34.3858C101.517 34.3858 101.768 34.369 101.977 34.3355C102.194 34.2935 102.386 34.2516 102.553 34.2097L102.716 36.2342C102.474 36.318 102.186 36.3935 101.851 36.4605C101.517 36.536 101.116 36.5737 100.648 36.5737C99.8288 36.5737 99.0725 36.3935 98.3788 36.033C97.6852 35.6725 97.1587 35.136 96.7993 34.4235C96.44 33.7109 96.3439 32.8265 96.511 31.7703L99.7076 12.3429Z" fill="black"/>
<path d="M69.4362 42.1861C68.9933 42.1861 67.6301 42.1861 67.2502 42.1861C66.6618 42.1861 14.2482 42.1861 14.2482 42.1861L12.2718 40.0358C14.2991 40.0358 68.9602 39.9948 69.5524 39.9948C70.5165 39.9948 98.4778 39.9948 108.549 39.9948C110.767 39.9948 112.835 38.8288 113.885 36.8746V36.8746L114.23 36.121L110.419 16.7062H112.739L115.747 33.1032H115.91L124.347 16.7062H126.866L115.478 38.1862C115.174 38.7614 114.747 39.3898 114.311 39.8731V39.8731C112.899 41.437 110.934 42.1861 108.827 42.1861H72.1689C72.1689 42.1861 72.1689 42.1861 72.1689 42.1861C72.1689 42.1861 70.1407 42.1861 69.4362 42.1861Z" fill="black"/>
<path d="M126.866 36.2845L131.129 10.5322H133.473L131.517 22.3395H146.084L148.039 10.5322H150.383L146.121 36.2845H143.777L145.733 24.452H131.166L129.211 36.2845H126.866Z" fill="black"/>
<path d="M165.915 28.9033L167.908 16.9702H170.14L166.931 36.2845H164.699L165.226 33.078H165.063C164.461 34.0672 163.609 34.8929 162.506 35.5552C161.411 36.209 160.157 36.536 158.745 36.536C157.516 36.536 156.467 36.2677 155.598 35.7312C154.738 35.1863 154.123 34.39 153.756 33.3421C153.388 32.2942 153.329 31.0074 153.58 29.4817L155.674 16.9702H157.905L155.849 29.3434C155.607 30.8524 155.849 32.0679 156.576 32.99C157.312 33.9037 158.373 34.3606 159.76 34.3606C160.629 34.3606 161.499 34.151 162.368 33.7319C163.245 33.3127 164.006 32.7008 164.649 31.896C165.301 31.0829 165.723 30.0853 165.915 28.9033Z" fill="black"/>
<path d="M173.302 36.2845L177.564 10.5322H179.808L178.153 20.6545H178.354C178.697 20.0761 179.152 19.4809 179.72 18.869C180.297 18.257 181.007 17.7457 181.851 17.3349C182.695 16.9158 183.707 16.7062 184.885 16.7062C186.465 16.7062 187.781 17.1253 188.834 17.9636C189.895 18.7935 190.635 19.9588 191.053 21.4593C191.47 22.9515 191.516 24.6909 191.191 26.6777C190.856 28.6728 190.234 30.4206 189.323 31.9212C188.412 33.4217 187.292 34.5911 185.963 35.4294C184.634 36.2677 183.184 36.6869 181.613 36.6869C180.443 36.6869 179.499 36.4773 178.78 36.0581C178.07 35.639 177.527 35.1235 177.15 34.5115C176.783 33.8912 176.515 33.2876 176.348 32.7008H176.072L175.471 36.2845H173.302ZM177.113 26.6399C176.862 28.1992 176.862 29.5823 177.113 30.7895C177.372 31.9882 177.878 32.9313 178.63 33.6187C179.39 34.2977 180.393 34.6372 181.638 34.6372C182.917 34.6372 184.058 34.2852 185.061 33.581C186.072 32.8684 186.907 31.9086 187.568 30.7015C188.236 29.4943 188.696 28.1405 188.947 26.6399C189.189 25.1562 189.185 23.8191 188.934 22.6287C188.683 21.4383 188.178 20.4953 187.417 19.7995C186.657 19.0953 185.633 18.7432 184.346 18.7432C183.092 18.7432 181.964 19.0827 180.961 19.7618C179.967 20.4324 179.139 21.3629 178.479 22.5533C177.819 23.7353 177.364 25.0975 177.113 26.6399Z" fill="black"/>
</g>
<defs>
<clipPath id="clip0_725_59">
<rect width="200" height="51" fill="white"/>
</clipPath>
</defs>
</svg>
