<svg width="118" height="29" viewBox="0 0 118 29" fill="none" xmlns="http://www.w3.org/2000/svg">
<path d="M113.382 0.107914C113.382 0.107914 12.3751 0 8.59815 0C4.82118 0 3.4183 2.48201 2.77082 5.71942L0.0729687 23.4173C-0.466594 27.6259 2.01543 30 6.5478 30L65.3968 30C69.4975 30 74.0299 27.7338 74.0299 27.7338H111.224C115.444 27.7338 117.159 24.8201 117.807 21.1511L119.965 6.36691C120.397 2.48201 117.076 0.107911 113.382 0.107914Z" fill="white"/>
<path d="M6.33197 21.1712L8.88933 5.71942H14.0868C15.0897 5.71942 15.897 5.89547 16.5088 6.24756C17.1205 6.59965 17.5417 7.08 17.7724 7.68862C18.0081 8.29723 18.0582 8.98884 17.9228 9.76344C17.8175 10.4073 17.6195 10.958 17.3286 11.4158C17.0378 11.8684 16.6843 12.2381 16.2681 12.5248C15.8569 12.8065 15.4131 13.0102 14.9367 13.136L14.9142 13.2567C15.4056 13.2919 15.8594 13.4679 16.2756 13.7848C16.6918 14.0967 17.0027 14.5343 17.2083 15.0976C17.4189 15.661 17.4615 16.335 17.3361 17.1196C17.2058 17.8993 16.9149 18.5959 16.4636 19.2095C16.0173 19.8182 15.4056 20.2985 14.6283 20.6506C13.8561 20.9977 12.9184 21.1712 11.8152 21.1712H6.33197ZM7.94912 19.9037H12.0259C13.2143 19.9037 14.1369 19.6396 14.7938 19.1115C15.4507 18.5833 15.8494 17.9194 15.9898 17.1196C16.085 16.5311 16.0299 15.998 15.8243 15.5201C15.6187 15.0373 15.2827 14.655 14.8164 14.3733C14.35 14.0916 13.7709 13.9508 13.0789 13.9508H8.94198L7.94912 19.9037ZM9.15259 12.6984H13.0714C13.6781 12.6984 14.2297 12.5726 14.7261 12.3211C15.2226 12.0696 15.6337 11.7226 15.9597 11.2799C16.2856 10.8373 16.4937 10.3318 16.584 9.76344C16.7244 8.94357 16.5714 8.27711 16.1252 7.76407C15.6839 7.24599 14.9342 6.98695 13.8762 6.98695H10.0853L9.15259 12.6984Z" fill="black"/>
<path d="M24.4084 21.4126C23.3303 21.4126 22.4402 21.1611 21.7382 20.6581C21.0362 20.1501 20.5447 19.4485 20.2639 18.5531C19.9831 17.6528 19.9405 16.6166 20.1361 15.4447C20.3316 14.2778 20.7177 13.2416 21.2944 12.3362C21.8711 11.4258 22.5831 10.7141 23.4305 10.201C24.278 9.68296 25.1981 9.42392 26.191 9.42392C26.8178 9.42392 27.4045 9.53961 27.9511 9.77098C28.4976 9.99733 28.9615 10.3469 29.3426 10.8197C29.7287 11.2875 29.9969 11.8785 30.1474 12.5927C30.2978 13.302 30.2928 14.1419 30.1323 15.1127L30.027 15.7767H21.0011L21.1891 14.5921H28.8536C28.979 13.8477 28.9439 13.1787 28.7483 12.5852C28.5528 11.9917 28.2193 11.5214 27.748 11.1743C27.2816 10.8222 26.7025 10.6462 26.0105 10.6462C25.3034 10.6462 24.634 10.8449 24.0022 11.2422C23.3754 11.6396 22.8439 12.1577 22.4076 12.7965C21.9764 13.4302 21.6981 14.1067 21.5727 14.826L21.4223 15.7163C21.2618 16.6971 21.2819 17.5195 21.4824 18.1834C21.683 18.8424 22.0466 19.3403 22.5731 19.6773C23.0996 20.0143 23.774 20.1828 24.5964 20.1828C25.148 20.1828 25.6469 20.0973 26.0932 19.9263C26.5395 19.7553 26.9281 19.5264 27.2591 19.2397C27.59 18.948 27.8558 18.6286 28.0564 18.2815L29.2523 18.6965C28.9966 19.1844 28.6355 19.6346 28.1692 20.047C27.7079 20.4595 27.1588 20.7914 26.5219 21.0429C25.8901 21.2894 25.1856 21.4126 24.4084 21.4126Z" fill="black"/>
<path d="M35.2715 21.4353C34.5745 21.4353 33.9602 21.2995 33.4287 21.0278C32.8972 20.7512 32.501 20.3538 32.2403 19.8358C31.9845 19.3127 31.9143 18.6789 32.0297 17.9345C32.13 17.3611 32.3205 16.8782 32.6013 16.4859C32.8871 16.0935 33.2482 15.7716 33.6844 15.5201C34.1207 15.2636 34.6221 15.0624 35.1887 14.9165C35.7554 14.7707 36.3721 14.66 37.0391 14.5846C37.6909 14.5041 38.2476 14.4337 38.7089 14.3733C39.1702 14.313 39.5287 14.2174 39.7845 14.0866C40.0402 13.9558 40.1931 13.7446 40.2433 13.4529L40.2884 13.1812C40.4188 12.3915 40.2984 11.7704 39.9274 11.3177C39.5563 10.86 38.9345 10.6311 38.062 10.6311C37.2296 10.6311 36.5075 10.8172 35.8958 11.1894C35.289 11.5566 34.8377 11.9866 34.5419 12.4796L33.3535 12.0193C33.7145 11.3856 34.1583 10.8801 34.6848 10.5028C35.2113 10.1206 35.7754 9.84643 36.3772 9.68045C36.9789 9.50943 37.5731 9.42392 38.1598 9.42392C38.6011 9.42392 39.0499 9.48177 39.5062 9.59745C39.9625 9.71314 40.3712 9.91434 40.7322 10.201C41.0982 10.4827 41.3665 10.8776 41.537 11.3856C41.7125 11.8886 41.7376 12.5274 41.6122 13.302L40.3035 21.1712H38.9646L39.273 19.3378H39.1903C38.9797 19.6798 38.6888 20.0118 38.3177 20.3337C37.9517 20.6556 37.5129 20.9197 37.0015 21.1259C36.49 21.3322 35.9133 21.4353 35.2715 21.4353ZM35.61 20.2055C36.322 20.2055 36.9664 20.047 37.543 19.7301C38.1247 19.4133 38.6011 18.9933 38.9721 18.4702C39.3482 17.942 39.5889 17.3611 39.6942 16.7273L39.9725 15.0524C39.8622 15.1479 39.6817 15.2334 39.4309 15.3089C39.1852 15.3843 38.9069 15.4522 38.5961 15.5126C38.2902 15.5679 37.9818 15.6157 37.6709 15.6559C37.365 15.6962 37.0942 15.7314 36.8586 15.7616C36.1916 15.842 35.61 15.9678 35.1135 16.1388C34.6221 16.3098 34.2285 16.5462 33.9326 16.848C33.6368 17.1448 33.4512 17.5271 33.376 17.9948C33.2607 18.699 33.4136 19.2448 33.8349 19.6321C34.2611 20.0143 34.8528 20.2055 35.61 20.2055Z" fill="black"/>
<path d="M51.9357 16.7424L53.1316 9.58236H54.4705L52.5449 21.1712H51.2061L51.522 19.2473H51.4242C51.0632 19.8408 50.5517 20.3362 49.8898 20.7336C49.2329 21.1259 48.4807 21.3221 47.6333 21.3221C46.8962 21.3221 46.2669 21.1611 45.7454 20.8392C45.2289 20.5123 44.8603 20.0344 44.6397 19.4057C44.4191 18.777 44.3839 18.0049 44.5344 17.0895L45.7905 9.58236H47.1294L45.8958 17.0065C45.7504 17.9118 45.8958 18.6412 46.3321 19.1945C46.7733 19.7427 47.4102 20.0168 48.2426 20.0168C48.7641 20.0168 49.2856 19.8911 49.8071 19.6396C50.3336 19.3881 50.7899 19.0209 51.176 18.5381C51.5671 18.0502 51.8203 17.4516 51.9357 16.7424Z" fill="black"/>
<path d="M62.5656 9.58236L62.3776 10.7518H56.8567L57.0523 9.58236H62.5656ZM59.226 6.80587H60.5724L58.692 18.1457C58.6118 18.6286 58.6318 19.0083 58.7522 19.285C58.8725 19.5566 59.058 19.7503 59.3088 19.8659C59.5595 19.9766 59.8353 20.0319 60.1361 20.0319C60.3116 20.0319 60.4621 20.0219 60.5874 20.0017C60.7178 19.9766 60.8332 19.9515 60.9334 19.9263L61.0312 21.141C60.8858 21.1913 60.7128 21.2366 60.5122 21.2768C60.3116 21.3221 60.071 21.3447 59.7901 21.3447C59.2987 21.3447 58.8449 21.2366 58.4287 21.0203C58.0125 20.804 57.6966 20.4821 57.481 20.0546C57.2654 19.627 57.2077 19.0964 57.308 18.4626L59.226 6.80587Z" fill="black"/>
<path d="M41.0627 24.7122C40.797 24.7122 39.9791 24.7122 39.7511 24.7122C39.3981 24.7122 7.94912 24.7122 7.94912 24.7122L6.76324 23.4221C7.97965 23.4221 40.7771 23.3974 41.1324 23.3974C41.7109 23.3974 58.4881 23.3974 64.5309 23.3974C65.8621 23.3974 67.1025 22.6978 67.7327 21.5253V21.5253L67.9398 21.0731L65.6533 9.42392H67.0448L68.85 19.2624H68.9477L74.0098 9.42392H75.5217L68.6888 22.3123C68.5058 22.6574 68.2498 23.0344 67.9881 23.3244V23.3244C67.1411 24.2628 65.9617 24.7122 64.6977 24.7122H42.7024C42.7024 24.7122 42.7024 24.7122 42.7024 24.7122C42.7024 24.7122 41.4854 24.7122 41.0627 24.7122Z" fill="black"/>
<path d="M75.5217 21.1712L78.079 5.71942H79.4856L78.3122 12.804H87.0524L88.2257 5.71942H89.6323L87.0749 21.1712H85.6684L86.8417 14.0715H78.1016L76.9282 21.1712H75.5217Z" fill="black"/>
<path d="M98.9516 16.7424L100.148 9.58236H101.486L99.5608 21.1712H98.222L98.5379 19.2473H98.4401C98.0791 19.8408 97.5676 20.3362 96.9057 20.7336C96.2488 21.1259 95.4966 21.3221 94.6492 21.3221C93.9121 21.3221 93.2828 21.1611 92.7613 20.8392C92.2448 20.5123 91.8762 20.0344 91.6556 19.4057C91.435 18.777 91.3999 18.0049 91.5503 17.0895L92.8064 9.58236H94.1453L92.9117 17.0065C92.7663 17.9118 92.9117 18.6412 93.348 19.1945C93.7892 19.7427 94.4261 20.0168 95.2585 20.0168C95.78 20.0168 96.3015 19.8911 96.823 19.6396C97.3495 19.3881 97.8058 19.0209 98.1919 18.5381C98.583 18.0502 98.8362 17.4516 98.9516 16.7424Z" fill="black"/>
<path d="M103.384 21.1712L105.941 5.71942H107.287L106.295 11.793H106.415C106.621 11.4459 106.894 11.0888 107.235 10.7216C107.581 10.3545 108.007 10.0476 108.513 9.80116C109.02 9.54967 109.627 9.42392 110.334 9.42392C111.281 9.42392 112.071 9.67542 112.703 10.1784C113.34 10.6764 113.784 11.3755 114.034 12.2759C114.285 13.1712 114.313 14.2149 114.117 15.407C113.917 16.6041 113.543 17.6528 112.996 18.5531C112.45 19.4535 111.778 20.1552 110.981 20.6581C110.183 21.1611 109.313 21.4126 108.371 21.4126C107.669 21.4126 107.102 21.2869 106.671 21.0354C106.244 20.7839 105.919 20.4746 105.693 20.1074C105.472 19.7352 105.312 19.373 105.211 19.0209H105.046L104.685 21.1712H103.384ZM105.67 15.3843C105.52 16.3199 105.52 17.1498 105.67 17.8741C105.826 18.5934 106.129 19.1592 106.58 19.5717C107.037 19.9791 107.638 20.1828 108.386 20.1828C109.153 20.1828 109.837 19.9716 110.439 19.5491C111.046 19.1215 111.547 18.5456 111.943 17.8213C112.345 17.097 112.62 16.2847 112.771 15.3843C112.916 14.494 112.914 13.6918 112.763 12.9775C112.613 12.2633 112.309 11.6974 111.853 11.2799C111.397 10.8574 110.782 10.6462 110.01 10.6462C109.258 10.6462 108.581 10.8499 107.979 11.2573C107.383 11.6597 106.886 12.218 106.49 12.9323C106.094 13.6415 105.821 14.4588 105.67 15.3843Z" fill="black"/>
</svg>
